<?xml version="1.0" encoding="utf-8"?>
<!-- Generator: Adobe Illustrator 16.0.0, SVG Export Plug-In . SVG Version: 6.00 Build 0)  -->
<!DOCTYPE svg PUBLIC "-//W3C//DTD SVG 1.1//EN" "http://www.w3.org/Graphics/SVG/1.1/DTD/svg11.dtd">
<svg version="1.1" id="Layer_1" xmlns="http://www.w3.org/2000/svg" xmlns:xlink="http://www.w3.org/1999/xlink" x="0px" y="0px"
	 width="217px" height="24px" viewBox="0 0 217 24" enable-background="new 0 0 217 24" xml:space="preserve">
<g>
	<path fill="#FFFFFF" d="M13.793,8.293c0-0.859-0.258-1.934-1.117-2.363c-0.645-0.322-2.664-0.365-3.717-0.365H8.357v6.123
		c0,0.301,0,6.316,0.021,6.682c0.043,0.537,0.215,0.859,0.73,0.859h1.354c0.193,0,0.215,0.064,0.215,0.215v0.451
		c0,0.107-0.021,0.172-0.215,0.172c-0.215,0-0.902-0.064-3.008-0.064c-2.062,0-2.965,0.064-3.266,0.064
		c-0.172,0-0.193-0.086-0.193-0.215v-0.408c0-0.15,0.021-0.215,0.15-0.215h1.461c0.43,0,0.688-0.258,0.709-0.516
		c0.064-0.623,0.064-7.219,0.064-7.627V5.564H5.844c-0.688,0-2.557,0-3.395,0.258C1.482,6.123,0.838,7.627,0.537,8.314
		C0.494,8.422,0.43,8.443,0.322,8.422l-0.387-0.107C-0.129,8.293-0.193,8.271-0.15,8.143c0.215-0.773,0.967-3.545,1.01-3.781
		c0.043-0.279,0.129-0.344,0.215-0.344c0.107,0,0.172,0.021,0.258,0.086l0.279,0.193c0.387,0.279,0.602,0.344,1.225,0.365
		c1.139,0.043,2.041,0.129,4.061,0.129h2.213c2.342,0,3.266-0.086,4.318-0.129c0.602-0.021,0.838-0.086,1.311-0.473
		c0.258-0.215,0.322-0.172,0.451-0.172c0.107,0,0.279,0.129,0.215,0.537C15.34,4.92,15.34,9.732,15.34,10.807v1.375h0.107
		c0.752-0.902,1.998-1.396,2.943-1.396c0.902,0,1.525,0.279,2.127,0.859c0.967,0.902,0.924,1.998,0.924,3.158v1.225
		c0,1.203,0.043,2.535,0.043,2.943c0,0.258,0.344,0.322,0.795,0.322h0.365c0.172,0,0.236,0.043,0.236,0.193v0.322
		c0,0.172-0.043,0.258-0.172,0.258c-0.15,0-0.838-0.064-2.062-0.064c-1.053,0-1.826,0.064-2.02,0.064
		c-0.15,0-0.193-0.064-0.193-0.236v-0.365c0-0.107,0.021-0.172,0.15-0.172h0.494c0.365,0,0.795-0.043,0.816-0.408
		c0.021-0.301,0-1.439,0-2.127v-1.74c0-1.203-0.086-2.062-0.709-2.643c-0.43-0.408-0.881-0.602-1.418-0.602
		c-0.623,0-1.396,0.215-1.998,0.902c-0.193,0.236-0.43,0.666-0.43,1.053v4.684c0,0.688,0.064,0.881,0.473,0.881h0.645
		c0.15,0,0.236,0.043,0.236,0.172v0.365c0,0.15-0.043,0.236-0.172,0.236c-0.172,0-1.053-0.064-2.041-0.064
		c-1.074,0-1.891,0.064-2.084,0.064c-0.086,0-0.15-0.064-0.15-0.215v-0.387c0-0.15,0.086-0.172,0.322-0.172h0.451
		c0.344,0,0.666-0.086,0.709-0.344c0.064-0.408,0.064-2.771,0.064-4.168V8.293z"/>
	<path fill="#FFFFFF" d="M25.734,14.287c-0.043,0.193-0.064,0.537-0.064,1.031c0,2.105,1.332,3.695,3.051,3.695
		c1.311,0,2.234-0.752,2.6-1.461c0.043-0.086,0.129-0.129,0.193-0.107l0.279,0.15c0.064,0.021,0.107,0.086,0,0.322
		c-0.387,0.859-1.504,2.342-3.416,2.342c-1.225,0-2.578-0.365-3.373-1.525c-0.752-1.096-0.945-1.891-0.945-3.395
		c0-0.838,0.215-2.277,1.354-3.416c0.924-0.945,1.998-1.139,3.072-1.139c2.471,0,3.158,2.32,3.158,3.158
		c0,0.301-0.258,0.344-0.602,0.344H25.734z M29.15,13.643c0.408,0,0.58-0.107,0.58-0.301c0-0.494-0.258-1.912-1.654-1.912
		c-0.945,0-1.848,0.623-2.256,2.213H29.15z"/>
	<path fill="#FFFFFF" d="M40.877,10.42c0-0.945-0.043-3.975-0.043-4.232c0-0.408-0.301-0.623-0.881-0.623h-1.246
		c-0.086,0-0.15-0.043-0.15-0.129v-0.58c0-0.086,0.064-0.129,0.15-0.129c0.129,0,0.387,0.021,0.881,0.021
		c0.494,0.021,1.225,0.043,2.256,0.043c0.365,0,7.906,0.021,8.25-0.086c0.064,0.365,0.709,3.266,0.859,3.824
		c0.021,0.086,0,0.129-0.043,0.15l-0.387,0.15c-0.064,0.021-0.107-0.021-0.172-0.15c-0.193-0.344-0.752-1.139-1.375-1.977
		c-0.365-0.494-0.881-0.859-1.504-1.01C46.936,5.564,43.52,5.5,42.875,5.5c0,0.279-0.021,4.598-0.021,5.908v1.074
		c0.301,0,2.557-0.064,2.814-0.107c0.473-0.086,0.752-0.279,0.945-0.945c0.064-0.215,0.15-0.666,0.215-1.053
		c0.021-0.086,0.064-0.15,0.15-0.15l0.43,0.021c0.086,0,0.129,0.064,0.129,0.15c-0.043,0.365-0.043,2.148-0.043,2.449
		c0,0.773,0.064,1.805,0.107,2.234c0,0.107-0.043,0.15-0.15,0.172l-0.408,0.086c-0.107,0.021-0.129-0.043-0.15-0.15
		c-0.021-0.172-0.172-0.816-0.236-1.053c-0.15-0.516-0.408-0.773-0.881-0.838c-1.01-0.129-2.578-0.129-2.922-0.129v0.795
		c0,0.645,0.021,4.254,0.021,4.576c0,0.58,0.107,0.688,0.838,0.688h1.053c0.129,0,0.193,0.043,0.193,0.129v0.537
		c0,0.129-0.043,0.172-0.172,0.172c-0.215,0-1.074-0.064-2.922-0.064c-1.676,0-2.492,0.064-2.814,0.064
		c-0.086,0-0.129-0.043-0.129-0.15v-0.58c0-0.086,0.064-0.107,0.15-0.107h0.967c0.559,0,0.73-0.086,0.752-0.473
		c0.043-0.43,0.086-3.137,0.086-6.832V10.42z"/>
	<path fill="#FFFFFF" d="M55.076,13.6c0,1.117,0,4.361,0.021,5.027c0.021,0.365,0.107,0.666,0.559,0.666h0.967
		c0.193,0,0.236,0.064,0.236,0.193v0.365c0,0.129-0.043,0.215-0.129,0.215c-0.15,0-1.096-0.064-2.428-0.064
		c-1.375,0-2.234,0.064-2.428,0.064c-0.107,0-0.15-0.086-0.15-0.215v-0.365c0-0.15,0.043-0.193,0.279-0.193h1.031
		c0.236,0,0.451-0.15,0.473-0.537c0.021-0.666,0.021-4.361,0.021-5.607v-1.354c0-1.525-0.021-3.48-0.064-4.039
		c-0.043-0.73-0.387-1.074-1.074-1.289l-0.43-0.15c-0.107-0.043-0.129-0.064-0.129-0.107V6.037c0-0.064,0.064-0.107,0.193-0.15
		c0.752-0.344,1.719-0.73,2.514-1.246c0.193-0.129,0.322-0.172,0.451-0.172c0.15,0,0.193,0.107,0.172,0.387
		c-0.021,1.182-0.086,5.65-0.086,6.832V13.6z"/>
	<path fill="#FFFFFF" d="M64.184,17.445c0,1.225,0.258,1.611,0.645,1.611c0.344,0,0.645-0.172,0.752-0.322
		c0.086-0.107,0.129-0.15,0.215-0.086l0.215,0.172c0.064,0.064,0.107,0.172-0.021,0.387c-0.172,0.322-0.58,1.053-1.676,1.053
		c-0.773,0-1.332-0.559-1.525-1.439h-0.043c-0.451,0.537-1.16,0.988-2.127,1.311c-0.408,0.129-0.795,0.129-1.268,0.129
		c-0.516,0-1.289-0.43-1.289-1.783c0-0.988,0.451-1.848,2.148-2.6c0.967-0.43,2.084-0.945,2.428-1.246v-1.375
		c-0.043-0.365-0.064-0.924-0.301-1.203s-0.666-0.473-1.289-0.473c-0.43,0-1.096,0.172-1.396,0.451s-0.107,0.602-0.107,0.988
		c0,0.752-0.258,1.225-1.139,1.225c-0.344,0-0.516-0.193-0.516-0.688c0-0.688,0.602-1.504,1.482-2.02
		c0.902-0.537,1.654-0.752,2.621-0.752c1.01,0,1.418,0.301,1.719,0.58c0.451,0.451,0.473,0.945,0.473,1.525v3.287V17.445z
		 M62.615,15.275c-0.773,0.58-2.879,1.01-2.879,2.793c0,0.795,0.473,1.182,1.117,1.182c0.623,0,1.762-0.752,1.762-1.332V15.275z"/>
	<path fill="#FFFFFF" d="M76.686,17.66h0.086l1.74-4.748c0.279-0.752,0.107-1.182-0.322-1.182h-0.301
		c-0.107,0-0.129-0.064-0.129-0.172v-0.451c0-0.107,0.064-0.15,0.15-0.15c0.129,0,0.773,0.064,1.654,0.064
		c0.924,0,1.311-0.064,1.568-0.064c0.107,0,0.15,0.064,0.15,0.15v0.451c0,0.107-0.043,0.172-0.15,0.172h-0.537
		c-0.258,0-0.559,0.172-0.688,0.365c-0.258,0.408-2.986,7.262-3.266,7.949c-0.086,0.236-0.236,0.279-0.408,0.279
		c-0.15,0-0.301-0.15-0.387-0.408l-2.105-6.145h-0.107l-2.643,6.209c-0.107,0.258-0.279,0.344-0.451,0.344s-0.279-0.172-0.365-0.43
		l-2.814-7.584c-0.15-0.408-0.387-0.58-0.902-0.58h-0.473c-0.129,0-0.15-0.064-0.15-0.193v-0.408c0-0.107,0.021-0.172,0.129-0.172
		c0.301,0,0.73,0.064,1.955,0.064c0.967,0,1.482-0.064,1.805-0.064c0.129,0,0.172,0.043,0.172,0.172v0.43
		c0,0.107-0.021,0.172-0.172,0.172h-0.193c-0.236,0-0.387,0.193-0.258,0.58l1.697,5.715h0.086l2.191-5.264
		c-0.043-0.344-0.064-0.516-0.193-0.688c-0.107-0.15-0.279-0.215-0.58-0.215h-0.322c-0.107,0-0.15-0.043-0.15-0.15v-0.451
		c0-0.129,0.064-0.172,0.193-0.172c0.172,0,0.859,0.064,1.934,0.064c0.988,0,1.461-0.064,1.633-0.064c0.15,0,0.193,0.043,0.193,0.15
		v0.451c0,0.107-0.043,0.172-0.15,0.172h-0.451c-0.215,0-0.387,0.236-0.301,0.559L76.686,17.66z"/>
	<path fill="#FFFFFF" d="M84.481,13.6c0,1.117,0,4.361,0.021,5.027c0.021,0.365,0.107,0.666,0.559,0.666h0.967
		c0.193,0,0.236,0.064,0.236,0.193v0.365c0,0.129-0.043,0.215-0.129,0.215c-0.15,0-1.096-0.064-2.428-0.064
		c-1.375,0-2.234,0.064-2.428,0.064c-0.107,0-0.15-0.086-0.15-0.215v-0.365c0-0.15,0.043-0.193,0.279-0.193h1.031
		c0.236,0,0.451-0.15,0.473-0.537c0.021-0.666,0.021-4.361,0.021-5.607v-1.354c0-1.525-0.021-3.48-0.064-4.039
		c-0.043-0.73-0.387-1.074-1.074-1.289l-0.43-0.15c-0.107-0.043-0.129-0.064-0.129-0.107V6.037c0-0.064,0.064-0.107,0.193-0.15
		c0.752-0.344,1.719-0.73,2.514-1.246c0.193-0.129,0.322-0.172,0.451-0.172c0.15,0,0.193,0.107,0.172,0.387
		c-0.021,1.182-0.086,5.65-0.086,6.832V13.6z"/>
	<path fill="#FFFFFF" d="M88.842,14.287c-0.043,0.193-0.064,0.537-0.064,1.031c0,2.105,1.332,3.695,3.051,3.695
		c1.311,0,2.234-0.752,2.6-1.461c0.043-0.086,0.129-0.129,0.193-0.107l0.279,0.15c0.064,0.021,0.107,0.086,0,0.322
		c-0.387,0.859-1.504,2.342-3.416,2.342c-1.225,0-2.578-0.365-3.373-1.525c-0.752-1.096-0.945-1.891-0.945-3.395
		c0-0.838,0.215-2.277,1.354-3.416c0.924-0.945,1.998-1.139,3.072-1.139c2.471,0,3.158,2.32,3.158,3.158
		c0,0.301-0.258,0.344-0.602,0.344H88.842z M92.258,13.643c0.408,0,0.58-0.107,0.58-0.301c0-0.494-0.258-1.912-1.654-1.912
		c-0.945,0-1.848,0.623-2.256,2.213H92.258z"/>
	<path fill="#FFFFFF" d="M96.918,19.637c-0.107-0.064-0.107-0.193-0.129-0.301l-0.365-2.041c-0.021-0.107,0.043-0.15,0.129-0.172
		l0.279-0.064c0.086-0.021,0.15,0.021,0.193,0.129l0.537,1.053c0.43,0.795,0.73,1.332,1.869,1.332c0.752,0,1.697-0.451,1.697-1.461
		c0-0.967-0.473-1.525-2.084-1.977c-1.268-0.365-2.535-1.031-2.535-2.729c0-1.482,1.396-2.621,3.008-2.621
		c1.031,0,1.59,0.258,1.977,0.451c0.322,0.15,0.365,0.258,0.387,0.387l0.322,1.504c0,0.086-0.043,0.15-0.15,0.193l-0.258,0.086
		c-0.086,0.021-0.129,0-0.193-0.107l-0.73-0.988c-0.258-0.408-0.666-0.838-1.504-0.838c-0.816,0-1.654,0.494-1.654,1.418
		c0,1.246,1.01,1.482,2.062,1.783c1.568,0.451,2.557,1.096,2.578,2.75c-0.021,1.74-1.439,2.836-3.266,2.836
		C98.035,20.26,97.176,19.83,96.918,19.637z"/>
	<path fill="#FFFFFF" d="M104.564,19.637c-0.107-0.064-0.107-0.193-0.129-0.301l-0.365-2.041c-0.021-0.107,0.043-0.15,0.129-0.172
		l0.279-0.064c0.086-0.021,0.15,0.021,0.193,0.129l0.537,1.053c0.43,0.795,0.73,1.332,1.869,1.332c0.752,0,1.697-0.451,1.697-1.461
		c0-0.967-0.473-1.525-2.084-1.977c-1.268-0.365-2.535-1.031-2.535-2.729c0-1.482,1.396-2.621,3.008-2.621
		c1.031,0,1.59,0.258,1.977,0.451c0.321,0.15,0.364,0.258,0.386,0.387l0.322,1.504c0,0.086-0.043,0.15-0.15,0.193l-0.258,0.086
		c-0.086,0.021-0.129,0-0.193-0.107l-0.729-0.988c-0.258-0.408-0.666-0.838-1.504-0.838c-0.816,0-1.654,0.494-1.654,1.418
		c0,1.246,1.01,1.482,2.062,1.783c1.568,0.451,2.556,1.096,2.577,2.75c-0.021,1.74-1.438,2.836-3.265,2.836
		C105.682,20.26,104.822,19.83,104.564,19.637z"/>
	<path fill="#FFFFFF" d="M119.278,10.42c0-0.945-0.043-3.975-0.043-4.232c0-0.408-0.301-0.623-0.881-0.623h-1.246
		c-0.086,0-0.15-0.043-0.15-0.129v-0.58c0-0.086,0.064-0.129,0.15-0.129c0.129,0,0.387,0.021,0.881,0.021
		c0.494,0.021,1.225,0.043,2.256,0.043c0.365,0,7.906,0.021,8.25-0.086c0.064,0.365,0.709,3.266,0.859,3.824
		c0.021,0.086,0,0.129-0.043,0.15l-0.387,0.15c-0.064,0.021-0.107-0.021-0.172-0.15c-0.193-0.344-0.752-1.139-1.375-1.977
		c-0.365-0.494-0.881-0.859-1.504-1.01c-0.537-0.129-3.953-0.193-4.598-0.193c0,0.279-0.021,4.598-0.021,5.908v1.074
		c0.301,0,2.557-0.064,2.814-0.107c0.473-0.086,0.752-0.279,0.945-0.945c0.064-0.215,0.15-0.666,0.215-1.053
		c0.021-0.086,0.064-0.15,0.15-0.15l0.43,0.021c0.086,0,0.129,0.064,0.129,0.15c-0.043,0.365-0.043,2.148-0.043,2.449
		c0,0.773,0.064,1.805,0.107,2.234c0,0.107-0.043,0.15-0.15,0.172l-0.408,0.086c-0.107,0.021-0.129-0.043-0.15-0.15
		c-0.021-0.172-0.172-0.816-0.236-1.053c-0.15-0.516-0.408-0.773-0.881-0.838c-1.01-0.129-2.578-0.129-2.922-0.129v0.795
		c0,0.645,0.021,4.254,0.021,4.576c0,0.58,0.107,0.688,0.838,0.688h1.053c0.129,0,0.193,0.043,0.193,0.129v0.537
		c0,0.129-0.043,0.172-0.172,0.172c-0.215,0-1.074-0.064-2.922-0.064c-1.676,0-2.492,0.064-2.814,0.064
		c-0.086,0-0.129-0.043-0.129-0.15v-0.58c0-0.086,0.064-0.107,0.15-0.107h0.967c0.559,0,0.73-0.086,0.752-0.473
		c0.043-0.43,0.086-3.137,0.086-6.832V10.42z"/>
	<path fill="#FFFFFF" d="M130.19,18.777c-0.988-1.182-1.182-1.977-1.182-3.502c0-1.096,0.58-2.471,1.848-3.459
		c1.117-0.859,2.17-1.031,2.879-1.031c1.182,0,2.363,0.602,3.008,1.246c0.967,0.988,1.461,2.105,1.461,3.502
		c0,2.342-2.105,4.727-4.748,4.727C132.425,20.26,131.093,19.852,130.19,18.777z M136.399,15.318c0-2.385-1.74-3.889-2.836-3.889
		c-0.58,0-1.139,0.129-1.654,0.688c-0.838,0.859-1.139,1.74-1.139,3.373c0,1.203,0.129,2.02,0.816,3.008
		c0.494,0.709,1.117,1.117,2.127,1.117C135.347,19.615,136.399,17.617,136.399,15.318z"/>
	<path fill="#FFFFFF" d="M147.912,15.641c0,1.031,0,2.084,0.043,2.535c0.064,0.666,0.301,0.752,0.559,0.752
		c0.129,0,0.451,0,0.709-0.064c0.172-0.043,0.236,0,0.258,0.086l0.064,0.279c0.021,0.129-0.021,0.172-0.107,0.193l-2.256,0.752
		c-0.129,0.043-0.258,0.086-0.43,0.086c-0.086,0-0.172-0.043-0.193-0.258l-0.172-1.246h-0.043c-0.602,0.838-1.848,1.504-2.922,1.504
		c-0.602,0-1.311-0.064-2.02-0.988c-0.881-1.139-0.838-1.848-0.838-4.211v-2.514c-0.021-0.602-0.322-0.752-0.816-0.816
		c-0.365-0.021-0.473-0.043-0.473-0.15v-0.387c0-0.129,0.043-0.172,0.236-0.172h1.912c0.129,0,0.215-0.021,0.301-0.043
		c0.086,0,0.172-0.021,0.236-0.021c0.15,0,0.258,0.107,0.236,0.258c-0.021,0.193-0.086,1.203-0.086,2.471v1.547
		c0,0.859-0.215,2.234,0.473,3.223c0.537,0.773,1.139,0.816,1.719,0.816s1.439-0.559,1.848-1.074
		c0.086-0.107,0.215-0.387,0.215-0.58v-5.135c-0.043-0.602-0.387-0.709-0.924-0.752c-0.365,0-0.473-0.043-0.473-0.15v-0.365
		c0-0.172,0.043-0.193,0.258-0.193h1.998c0.15,0,0.258-0.021,0.365-0.043c0.107,0,0.193-0.021,0.258-0.021
		c0.129,0,0.215,0.107,0.193,0.215c-0.021,0.193-0.129,0.752-0.129,2.857V15.641z"/>
	<path fill="#FFFFFF" d="M159.447,18.842c0,0.344,0.193,0.451,0.473,0.451h0.688c0.193,0,0.236,0.064,0.236,0.193v0.344
		c0,0.15-0.043,0.236-0.172,0.236c-0.15,0-0.816-0.064-2.041-0.064c-1.096,0-1.783,0.064-1.934,0.064
		c-0.129,0-0.172-0.064-0.172-0.236v-0.344c0-0.15,0.064-0.193,0.279-0.193h0.623c0.236,0,0.408-0.107,0.43-0.494
		c0.021-0.559,0.043-1.246,0.043-1.805v-2.836c0-0.859,0-1.482-0.623-1.934c-0.516-0.387-1.031-0.387-1.568-0.387
		c-0.344,0-1.096,0.15-1.74,0.838c-0.43,0.473-0.494,1.053-0.494,1.461v4.447c0,0.58,0.064,0.709,0.516,0.709h0.537
		c0.172,0,0.215,0.064,0.215,0.215v0.365c0,0.129-0.043,0.193-0.15,0.193c-0.15,0-0.73-0.064-1.869-0.064
		c-1.096,0-1.783,0.064-1.912,0.064c-0.107,0-0.15-0.064-0.15-0.193v-0.387c0-0.129,0.043-0.193,0.215-0.193h0.623
		c0.279,0,0.43-0.064,0.43-0.43v-5.027c0-0.645-0.344-1.01-0.881-1.268l-0.172-0.086c-0.15-0.064-0.172-0.129-0.172-0.193v-0.107
		c0-0.107,0.086-0.172,0.193-0.215l1.848-1.031c0.172-0.086,0.301-0.15,0.387-0.15c0.107,0,0.15,0.086,0.172,0.258l0.15,1.311h0.043
		c0.623-0.773,1.869-1.568,2.943-1.568c0.645,0,1.311,0.129,1.826,0.473c0.645,0.43,1.182,1.504,1.182,2.041V18.842z"/>
	<path fill="#FFFFFF" d="M169.049,6.918c0-0.816-0.15-1.074-1.354-1.268c-0.129-0.021-0.15-0.064-0.15-0.15V5.135
		c0-0.086,0.043-0.129,0.172-0.15c0.838-0.172,1.955-0.365,2.363-0.451c0.193-0.021,0.344-0.064,0.494-0.064
		c0.107,0,0.129,0.15,0.107,0.387c-0.064,1.074-0.086,4.189-0.086,6.918v4.748c0,0.795,0.043,1.74,0.215,1.955
		c0.193,0.215,0.645,0.344,0.945,0.365s0.387,0.043,0.43,0.15l0.043,0.172c0.021,0.129-0.021,0.193-0.15,0.236l-2.428,0.816
		c-0.129,0.043-0.236-0.021-0.279-0.172l-0.279-0.945c-0.688,0.688-2.062,1.16-3.158,1.16c-0.709,0-1.525,0.043-2.535-0.988
		c-1.096-1.074-1.354-2.041-1.354-3.48c0-1.332,0.494-2.643,1.504-3.652c0.838-0.902,1.998-1.354,3.201-1.354
		c0.881,0,1.654,0.129,2.299,0.322V6.918z M169.049,13.729c0-0.301,0-0.709-0.193-1.053c-0.301-0.58-0.988-1.16-2.256-1.16
		c-0.666,0-1.396,0.193-1.955,0.773c-0.838,0.902-0.988,2.041-0.988,2.857c0,2.428,1.676,4.189,2.922,4.189
		c1.203,0,2.127-0.623,2.342-1.182c0.107-0.322,0.129-0.494,0.129-0.73V13.729z"/>
	<path fill="#FFFFFF" d="M179.659,17.445c0,1.225,0.258,1.611,0.645,1.611c0.344,0,0.645-0.172,0.752-0.322
		c0.086-0.107,0.129-0.15,0.215-0.086l0.215,0.172c0.064,0.064,0.107,0.172-0.021,0.387c-0.172,0.322-0.58,1.053-1.676,1.053
		c-0.773,0-1.332-0.559-1.525-1.439h-0.043c-0.451,0.537-1.16,0.988-2.127,1.311c-0.408,0.129-0.795,0.129-1.268,0.129
		c-0.516,0-1.289-0.43-1.289-1.783c0-0.988,0.451-1.848,2.148-2.6c0.967-0.43,2.084-0.945,2.428-1.246v-1.375
		c-0.043-0.365-0.064-0.924-0.301-1.203s-0.666-0.473-1.289-0.473c-0.43,0-1.096,0.172-1.396,0.451s-0.107,0.602-0.107,0.988
		c0,0.752-0.258,1.225-1.139,1.225c-0.344,0-0.516-0.193-0.516-0.688c0-0.688,0.602-1.504,1.482-2.02
		c0.902-0.537,1.654-0.752,2.621-0.752c1.01,0,1.418,0.301,1.719,0.58c0.451,0.451,0.473,0.945,0.473,1.525v3.287V17.445z
		 M178.091,15.275c-0.773,0.58-2.879,1.01-2.879,2.793c0,0.795,0.473,1.182,1.117,1.182c0.623,0,1.762-0.752,1.762-1.332V15.275z"/>
	<path fill="#FFFFFF" d="M185.243,17.316c0,1.611,0.73,1.891,1.117,1.891c0.494,0,1.117-0.086,1.418-0.279
		c0.107-0.064,0.193-0.043,0.258,0.043l0.107,0.193c0.064,0.086,0.021,0.172-0.043,0.236c-0.215,0.215-1.096,0.859-2.385,0.859
		c-1.053,0-2.084-1.01-2.084-1.826c0-0.881,0.064-2.771,0.064-3.072v-0.473c0-0.387,0.021-1.848,0.043-2.75h-1.311
		c-0.193,0-0.322-0.086-0.322-0.258s0.129-0.236,0.387-0.387c0.516-0.301,2.17-1.955,2.449-2.686
		c0.064-0.172,0.172-0.215,0.301-0.215c0.172,0,0.215,0.15,0.215,0.322l-0.107,2.105h2.986c0.129,0,0.193,0.107,0.15,0.193
		l-0.215,0.752c-0.021,0.107-0.064,0.172-0.193,0.172h-2.771c-0.043,0.988-0.064,2.041-0.064,3.029V17.316z"/>
	<path fill="#FFFFFF" d="M190.656,13.75c0-0.73-0.129-1.117-1.203-1.289c-0.15-0.021-0.193-0.064-0.193-0.15v-0.193
		c0-0.064,0.043-0.107,0.15-0.15c0.688-0.258,1.504-0.602,2.32-1.053c0.172-0.086,0.279-0.129,0.408-0.129
		c0.107,0,0.129,0.107,0.107,0.258c-0.043,0.365-0.043,1.719-0.043,3.502v2.342c0,0.838,0,1.611,0.021,1.848
		c0.043,0.408,0.107,0.559,0.344,0.559h0.988c0.172,0,0.215,0.064,0.215,0.193v0.365c0,0.15-0.043,0.215-0.193,0.215
		c-0.172,0-1.16-0.064-2.062-0.064c-1.246,0-2.084,0.064-2.32,0.064c-0.107,0-0.172-0.043-0.172-0.172v-0.43
		c0-0.129,0.064-0.172,0.215-0.172h1.053c0.236,0,0.322-0.086,0.344-0.43c0.021-0.645,0.021-1.311,0.021-1.955V13.75z
		 M189.646,7.154c0-0.559,0.473-1.203,1.354-1.203c0.795,0,1.16,0.645,1.16,1.139c0,0.58-0.387,1.268-1.289,1.268
		C190.377,8.357,189.646,7.863,189.646,7.154z"/>
	<path fill="#FFFFFF" d="M196.134,18.777c-0.988-1.182-1.182-1.977-1.182-3.502c0-1.096,0.58-2.471,1.848-3.459
		c1.117-0.859,2.17-1.031,2.879-1.031c1.182,0,2.363,0.602,3.008,1.246c0.967,0.988,1.461,2.105,1.461,3.502
		c0,2.342-2.105,4.727-4.748,4.727C198.368,20.26,197.036,19.852,196.134,18.777z M202.343,15.318c0-2.385-1.74-3.889-2.836-3.889
		c-0.58,0-1.139,0.129-1.654,0.688c-0.838,0.859-1.139,1.74-1.139,3.373c0,1.203,0.129,2.02,0.816,3.008
		c0.494,0.709,1.117,1.117,2.127,1.117C201.29,19.615,202.343,17.617,202.343,15.318z"/>
	<path fill="#FFFFFF" d="M214.414,18.842c0,0.344,0.193,0.451,0.473,0.451h0.688c0.193,0,0.236,0.064,0.236,0.193v0.344
		c0,0.15-0.043,0.236-0.172,0.236c-0.15,0-0.816-0.064-2.041-0.064c-1.096,0-1.783,0.064-1.934,0.064
		c-0.129,0-0.172-0.064-0.172-0.236v-0.344c0-0.15,0.064-0.193,0.279-0.193h0.623c0.236,0,0.408-0.107,0.43-0.494
		c0.021-0.559,0.043-1.246,0.043-1.805v-2.836c0-0.859,0-1.482-0.623-1.934c-0.516-0.387-1.031-0.387-1.568-0.387
		c-0.344,0-1.096,0.15-1.74,0.838c-0.43,0.473-0.494,1.053-0.494,1.461v4.447c0,0.58,0.064,0.709,0.516,0.709h0.537
		c0.172,0,0.215,0.064,0.215,0.215v0.365c0,0.129-0.043,0.193-0.15,0.193c-0.15,0-0.73-0.064-1.869-0.064
		c-1.096,0-1.783,0.064-1.912,0.064c-0.107,0-0.15-0.064-0.15-0.193v-0.387c0-0.129,0.043-0.193,0.215-0.193h0.623
		c0.279,0,0.43-0.064,0.43-0.43v-5.027c0-0.645-0.344-1.01-0.881-1.268l-0.172-0.086c-0.15-0.064-0.172-0.129-0.172-0.193v-0.107
		c0-0.107,0.086-0.172,0.193-0.215l1.848-1.031c0.172-0.086,0.301-0.15,0.387-0.15c0.107,0,0.15,0.086,0.172,0.258l0.15,1.311h0.043
		c0.623-0.773,1.869-1.568,2.943-1.568c0.645,0,1.311,0.129,1.826,0.473c0.645,0.43,1.182,1.504,1.182,2.041V18.842z"/>
</g>
</svg>
